<svg xmlns="http://www.w3.org/2000/svg" width="20" height="20" viewBox="0 0 20 20">
  <metadata><?xpacket begin="﻿" id="W5M0MpCehiHzreSzNTczkc9d"?>
<x:xmpmeta xmlns:x="adobe:ns:meta/" x:xmptk="Adobe XMP Core 5.6-c142 79.160924, 2017/07/13-01:06:39        ">
   <rdf:RDF xmlns:rdf="http://www.w3.org/1999/02/22-rdf-syntax-ns#">
      <rdf:Description rdf:about=""/>
   </rdf:RDF>
</x:xmpmeta>
                                                                                                    
                                                                                                    
                                                                                                    
                                                                                                    
                                                                                                    
                                                                                                    
                                                                                                    
                                                                                                    
                                                                                                    
                                                                                                    
                                                                                                    
                                                                                                    
                                                                                                    
                                                                                                    
                                                                                                    
                                                                                                    
                                                                                                    
                                                                                                    
                                                                                                    
                                                                                                    
                           
<?xpacket end="w"?></metadata>
<defs>
    <style>
      .cls-1 {
        fill: #a292b3;
        fill-rule: evenodd;
      }
    </style>
  </defs>
  <path class="cls-1" d="M897,67.755v2.49h-2.663a7.386,7.386,0,0,1-1.354,3.184l1.419,1.436-1.661,1.644-1.421-1.437a7.434,7.434,0,0,1-3.07,1.279V79h-2.5V76.357a7.431,7.431,0,0,1-3.161-1.309l-1.438,1.422-1.643-1.662,1.423-1.408a7.369,7.369,0,0,1-1.33-3.156H877v-2.49h2.6a7.373,7.373,0,0,1,1.359-3.161L879.6,63.213l1.661-1.644,1.368,1.384a7.444,7.444,0,0,1,3.123-1.277V59h2.5v2.682a7.43,7.43,0,0,1,3.158,1.351l1.441-1.426,1.643,1.662-1.437,1.422a7.375,7.375,0,0,1,1.278,3.064H897ZM887,64.1a4.981,4.981,0,1,0,5,4.981A4.991,4.991,0,0,0,887,64.1Zm0,8.755a3.774,3.774,0,1,1,3.789-3.774A3.781,3.781,0,0,1,887,72.852Zm0-6.245a2.471,2.471,0,1,0,2.481,2.471A2.476,2.476,0,0,0,887,66.607Z" transform="translate(-877 -59)"/>
</svg>
